# xmcd
#
# Track frame offsets: 
#        150
#        17182
#        30950
#        46152
#        63156
#        82922
#        102350
#        117792
#        135846
#        152665
#        169315
#        185592
#        204742
#
# Disc length: 3056 seconds
#
# Revision: 1
# Processed by: cddbd v1.5.2PL0 Copyright (c) Steve Scherf et al.
# Submitted via: ExactAudioCopy v0.95b4
#
DISCID=9c0bee0d
DTITLE=Darryl Worley - Here And Now
DYEAR=2006
DGENRE=Country
TTITLE0=Jumpin' Off The Wagon
TTITLE1=Nothin' But A Love Thang
TTITLE2=Free
TTITLE3=It's The Way You Love Me
TTITLE4=Party Song
TTITLE5=Living In The Here And Now
TTITLE6=Do You Know What That Is
TTITLE7=Things I'll Never Do Again
TTITLE8=Slow Dancing With A Memory
TTITLE9=Whisky Makes The World Go Round
TTITLE10=Lowdown Women
TTITLE11=Nothin' To Lose
TTITLE12=I Just Came Back From A War
EXTD=Released 11/21/2006.
EXTT0=
EXTT1=
EXTT2=
EXTT3=
EXTT4=
EXTT5=
EXTT6=
EXTT7=
EXTT8=
EXTT9=
EXTT10=
EXTT11=
EXTT12=
PLAYORDER=
